<svg xmlns="http://www.w3.org/2000/svg" aria-hidden="true" focusable="false" style="position:absolute;width:0;height:0;overflow:hidden">
  <symbol id="play" viewBox="0 0 24 24">
    <path d="M5 5a2 2 0 0 1 3.008-1.728l11.997 6.998a2 2 0 0 1 .003 3.458l-12 7A2 2 0 0 1 5 19z" />
  </symbol>
  <symbol id="pause" viewBox="0 0 24 24">
    <path d="M6 5h4v14H6z" />
    <path d="M14 5h4v14h-4z" />
  </symbol>
  <symbol id="next" viewBox="0 0 24 24">
    <path d="M6 5.5v13l9-6.5z" />
    <path d="M18 5v14" />
  </symbol>
  <symbol id="volume-on" viewBox="0 0 24 24">
    <path d="M11 5 6 9H3v6h3l5 4z" />
    <path d="M15.54 8.46a5 5 0 0 1 0 7.07" />
    <path d="M18.36 5.64a9 9 0 0 1 0 12.72" />
  </symbol>
  <symbol id="volume-off" viewBox="0 0 24 24">
    <path d="M11 5 6 9H3v6h3l5 4z" />
    <path d="m22 9-6 6" />
    <path d="m16 9 6 6" />
  </symbol>
  <symbol id="captions-off" viewBox="0 0 24 24">
    <path d="M10.5 5H19a2 2 0 0 1 2 2v8.5" />
    <path d="M17 11h-.5" />
    <path d="M19 19H5a2 2 0 0 1-2-2V7a2 2 0 0 1 2-2" />
    <path d="m2 2 20 20" />
    <path d="M7 11h4" />
    <path d="M7 15h2.5" />
  </symbol>
  <symbol id="captions-on" viewBox="0 0 24 24">
    <rect width="18" height="14" x="3" y="5" rx="2" ry="2" />
    <path d="M7 15h4M15 15h2M7 11h2M13 11h4" />
  </symbol>
  <symbol id="settings" viewBox="0 0 24 24">
    <path d="M9.671 4.136a2.34 2.34 0 0 1 4.659 0 2.34 2.34 0 0 0 3.319 1.915 2.34 2.34 0 0 1 2.33 4.033 2.34 2.34 0 0 0 0 3.831 2.34 2.34 0 0 1-2.33 4.033 2.34 2.34 0 0 0-3.319 1.915 2.34 2.34 0 0 1-4.659 0 2.34 2.34 0 0 0-3.32-1.915 2.34 2.34 0 0 1-2.33-4.033 2.34 2.34 0 0 0 0-3.831A2.34 2.34 0 0 1 6.35 6.051a2.34 2.34 0 0 0 3.319-1.915" />
    <circle cx="12" cy="12" r="3" />
  </symbol>
  <symbol id="screenshot" viewBox="0 0 24 24">
    <path d="M4.5 8.5C4.5 7.39543 5.39543 6.5 6.5 6.5H8.21643C8.53815 6.5 8.83872 6.34557 9.02396 6.08541L9.77604 5.02928C9.96128 4.76912 10.2619 4.61469 10.5836 4.61469H13.4164C13.7381 4.61469 14.0387 4.76912 14.224 5.02928L14.976 6.08541C15.1613 6.34557 15.4618 6.5 15.7836 6.5H17.5C18.6046 6.5 19.5 7.39543 19.5 8.5V16.5C19.5 17.6046 18.6046 18.5 17.5 18.5H6.5C5.39543 18.5 4.5 17.6046 4.5 16.5V8.5Z" />
    <circle cx="12" cy="12.5" r="3.2" />
  </symbol>
  <symbol id="clip" viewBox="0 0 24 24">
    <path d="M4 8a2 2 0 0 1 2-2h8a2 2 0 0 1 2 2v1.2l3.4-2.1A1 1 0 0 1 21 8v8a1 1 0 0 1-1.6.8L16 14.8V16a2 2 0 0 1-2 2H6a2 2 0 0 1-2-2z" />
    <circle cx="8.75" cy="10.5" r="1.4" fill="currentColor" stroke="none" />
  </symbol>
  <symbol id="comments" viewBox="0 0 24 24">
    <path d="M20 17a2 2 0 0 1-2 2H6.83a2 2 0 0 0-1.41.59l-2.21 2.2A.71.71 0 0 1 2 21.29V5a2 2 0 0 1 2-2h14a2 2 0 0 1 2 2z" />
    <path d="M8 11h.01" />
    <path d="M12 11h.01" />
    <path d="M16 11h.01" />
  </symbol>
  <symbol id="episodes" viewBox="0 0 24 24">
    <path d="M8 6h11" />
    <path d="M8 12h11" />
    <path d="M8 18h11" />
    <circle cx="4.5" cy="6" r="1.2" fill="currentColor" stroke="none" />
    <circle cx="4.5" cy="12" r="1.2" fill="currentColor" stroke="none" />
    <circle cx="4.5" cy="18" r="1.2" fill="currentColor" stroke="none" />
  </symbol>
  <symbol id="cast" viewBox="0 0 24 24">
    <path d="M3.5 5.5h17a1.5 1.5 0 0 1 1.5 1.5v10a1.5 1.5 0 0 1-1.5 1.5H14" />
    <path d="M4 18.5a2.5 2.5 0 0 1 2.5 2.5" />
    <path d="M4 14.5a6.5 6.5 0 0 1 6.5 6.5" />
  </symbol>
  <symbol id="pip-off" viewBox="0 0 24 24">
    <rect x="3" y="5" width="18" height="14" rx="2" />
    <rect x="12" y="10" width="7" height="5" rx="1" />
  </symbol>
  <symbol id="pip-on" viewBox="0 0 24 24">
    <rect x="3" y="5" width="18" height="14" rx="2" />
    <rect x="5" y="8" width="7" height="5" rx="1" />
  </symbol>
  <symbol id="fullscreen-off" viewBox="0 0 24 24">
    <path d="M3 7V5a2 2 0 0 1 2-2h2" />
    <path d="M17 3h2a2 2 0 0 1 2 2v2" />
    <path d="M21 17v2a2 2 0 0 1-2 2h-2" />
    <path d="M7 21H5a2 2 0 0 1-2-2v-2" />
    <rect width="10" height="8" x="7" y="8" rx="1" />
  </symbol>
  <symbol id="fullscreen-on" viewBox="0 0 24 24">
    <path d="M9 9H5V5" />
    <path d="M15 9h4V5" />
    <path d="M9 15H5v4" />
    <path d="M15 15h4v4" />
  </symbol>
  <symbol id="skip" viewBox="0 0 24 24">
    <path d="M6 18L14.5 12L6 6V18Z" />
    <path d="M16 6V18H18V6H16Z" />
  </symbol>
  <symbol id="reaction" viewBox="0 0 60 60">
    <path d="M43.7186 27.1678 C 43.3041 26.6702,42.7855 26.2696,42.1992 25.9943 C 41.613 25.719,40.9735 25.5758,40.3258 25.5747 L 33.5993 25.5747 L 34.4253 23.4652 C 34.7689 22.5416,34.8834 21.5484,34.7588 20.5709 C 34.6342 19.5934,34.2744 18.6606,33.7102 17.8527 C 33.1459 17.0448,32.3941 16.3858,31.5192 15.9322 C 30.6444 15.4787,29.6725 15.2442,28.6871 15.2488 C 28.4033 15.2493,28.1258 15.3318,27.8877 15.4861 C 27.6496 15.6405,27.461 15.8603,27.3447 16.1191 L 23.1406 25.5747 L 19.674 25.5747 C 18.5004 25.5747,17.3747 26.0409,16.5448 26.8708 C 15.7149 27.7007,15.2487 28.8263,15.2487 30 L 15.2487 40.3259 C 15.2487 41.4996,15.7149 42.6252,16.5448 43.4551 C 17.3747 44.2851,18.5004 44.7513,19.674 44.7513 L 38.4524 44.7513 C 39.4877 44.751,40.4901 44.3877,41.2851 43.7247 C 42.0802 43.0616,42.6177 42.1408,42.8041 41.1225 L 44.6775 30.7966 C 44.7933 30.1584,44.7675 29.5026,44.6018 28.8755 C 44.4361 28.2484,44.1346 27.6654,43.7186 27.1678 M 22.6243 41.8011 L 19.674 41.8011 C 19.2828 41.8011,18.9076 41.6456,18.631 41.369 C 18.3543 41.0924,18.1989 40.7172,18.1989 40.3259 L 18.1989 30 C 18.1989 29.6088,18.3543 29.2336,18.631 28.957 C 18.9076 28.6803,19.2828 28.5249,19.674 28.5249 L 22.6243 28.5249 L 22.6243 41.8011 M 41.801 30.2656 L 39.9276 40.5915 C 39.8647 40.9351,39.682 41.2453,39.4118 41.4668 C 39.1417 41.6883,38.8017 41.8068,38.4524 41.8011 L 25.5746 41.8011 L 25.5746 27.3596 L 29.5869 18.3318 C 29.9999 18.4522,30.3835 18.6569,30.7134 18.933 C 31.0433 19.2091,31.3124 19.5506,31.5037 19.936 C 31.695 20.3213,31.8043 20.7421,31.8248 21.1718 C 31.8452 21.6016,31.7764 22.0309,31.6226 22.4326 L 30.8408 24.5421 C 30.6742 24.9879,30.6179 25.4675,30.6768 25.9398 C 30.7357 26.4121,30.9081 26.8631,31.1791 27.2544 C 31.4501 27.6457,31.8117 27.9656,32.2331 28.1869 C 32.6546 28.4081,33.1233 28.5241,33.5993 28.5249 L 40.3258 28.5249 C 40.5426 28.5246,40.7567 28.572,40.953 28.6637 C 41.1493 28.7555,41.323 28.8894,41.4617 29.056 C 41.6038 29.2202,41.7079 29.4137,41.7665 29.6228 C 41.8252 29.8319,41.8369 30.0514,41.801 30.2656" fill="currentColor" />
  </symbol>
</svg>
